<group>
ampeg_attack=0.100000
ampeg_release=0.500000

<region>
sample=Harmonica-Hohner-Special20-F/Releases/HandVib/Hohner-Special20-F_HandVib_rel_F3.wav
pitch_keycenter=53
lokey=53.0
hikey=55.0
tune=-5
volume=1.906180

<region>
sample=Harmonica-Hohner-Special20-F/Releases/HandVib/Hohner-Special20-F_HandVib_rel_A3.wav
pitch_keycenter=57
lokey=56.0
hikey=58.0
tune=-3
volume=-1.586904

<region>
sample=Harmonica-Hohner-Special20-F/Releases/HandVib/Hohner-Special20-F_HandVib_rel_C4.wav
pitch_keycenter=60
lokey=59.0
hikey=62.0
tune=-3
volume=-1.207789

<region>
sample=Harmonica-Hohner-Special20-F/Releases/HandVib/Hohner-Special20-F_HandVib_rel_F4.wav
pitch_keycenter=65
lokey=63.0
hikey=67.0
tune=-4
volume=0.620358

<region>
sample=Harmonica-Hohner-Special20-F/Releases/HandVib/Hohner-Special20-F_HandVib_rel_A4.wav
pitch_keycenter=69
lokey=68.0
hikey=70.0
tune=-1
volume=1.466778

<region>
sample=Harmonica-Hohner-Special20-F/Releases/HandVib/Hohner-Special20-F_HandVib_rel_C5.wav
pitch_keycenter=72
lokey=71.0
hikey=74.0
tune=-7
volume=-1.970316

<region>
sample=Harmonica-Hohner-Special20-F/Releases/HandVib/Hohner-Special20-F_HandVib_rel_F5.wav
pitch_keycenter=77
lokey=75.0
hikey=79.0
tune=-4
volume=1.675161

<region>
sample=Harmonica-Hohner-Special20-F/Releases/HandVib/Hohner-Special20-F_HandVib_rel_A5.wav
pitch_keycenter=81
lokey=80.0
hikey=82.0
volume=-0.005698

<region>
sample=Harmonica-Hohner-Special20-F/Releases/HandVib/Hohner-Special20-F_HandVib_rel_C6.wav
pitch_keycenter=84
lokey=83.0
hikey=86.0
tune=-5
volume=2.884642

<region>
sample=Harmonica-Hohner-Special20-F/Releases/HandVib/Hohner-Special20-F_HandVib_rel_F6.wav
pitch_keycenter=89
lokey=87.0
hikey=90.0
tune=-4
volume=-1.529193

